<?xml version="1.0" encoding="utf-8"?>
<!-- Generator: Adobe Illustrator 27.5.0, SVG Export Plug-In . SVG Version: 6.00 Build 0)  -->
<svg version="1.1" id="Layer_1" xmlns="http://www.w3.org/2000/svg" xmlns:xlink="http://www.w3.org/1999/xlink" x="0px" y="0px"
	 viewBox="0 0 1000 1000" style="enable-background:new 0 0 1000 1000;" xml:space="preserve">
<path d="M63.5,526.4c0-17,0-34,0-51.1c0.5-2.7,1.3-5.5,1.5-8.2c2.1-32.7,8.4-64.6,18.2-95.8C155.1,142,398.2,14.1,627.9,84.6
	c217.3,66.8,348.4,292.1,295.4,513.6c-38.1,159-138.3,264.3-292.7,317.4c-24.9,8.6-51.4,12.6-77.8,18.9c0-115.7,0-228.9,0-343.2
	c35.1,0,69.5,0,104.2,0c5.3-40.8,10.4-80.6,15.7-121.5c-40.5,0-80.3,0-120.2,0c0-30.3-0.5-59.4,0.3-88.6c0.2-8.2,2.7-17,6.3-24.4
	c7.9-16.4,23.4-21.8,40.1-22.6c22.6-1.1,45.3-0.9,68-1.2c3,0,6-0.3,9.5-0.5c0-35,0.1-69-0.3-103c0-2-3.7-5.6-5.9-5.7
	c-34.5-1.5-69.1-4.2-103.6-3.4c-32.9,0.8-63.4,11.7-89.1,33.4c-33.5,28.4-48,66.1-50.3,108.6c-1.7,32.2-0.9,64.6-1.3,96.9
	c0,3.3,0,6.6,0,10.9c-35.4,0-69.9,0-104.3,0c0,40.8,0,80.7,0,121.7c34.9,0,69.3,0,103.8,0c0,113.1,0,225.1,0,337.1
	c-1.2,0.1-2.1,0.4-2.8,0.3c-38.2-6.6-74.8-18.4-109.7-35c-65.7-31.3-120.6-76-164-134.5C108.7,705,81.9,644.1,70.3,576.8
	C67.4,560.1,65.7,543.2,63.5,526.4z"/>
<g>
	<path d="M-718.1,1151.3c-87.7,0-175.5,0-263.2,0c-5.4-0.5-10.7-1.2-16.1-1.4c-35-0.9-70-2.3-104.3-10.7
		c-72-17.7-125.6-58.6-157.4-126.2c-19.8-42-25.8-87.2-26.3-133c-1-94.3-1.8-188.5-1.4-282.8c0.2-42.6,0.7-85.5,9.7-127.5
		c16.3-75.3,57.2-131.8,127.5-165.2c41.4-19.7,86-25.5,131.2-26.6c120.7-2.9,241.4-4.3,362.1,1.6c35.2,1.7,69.5,8.5,101.8,23.1
		C-474.3,339-432.2,403.4-419,488.5c2.3,15.1,3.5,30.4,5.2,45.6c0,117.4,0,234.8,0,352.2c-0.5,3.1-1.1,6.1-1.4,9.2
		c-1.8,17.2-2.7,34.6-5.6,51.7c-9.3,54.9-32.8,102.6-74.9,140c-45.7,40.5-100.7,56.7-160.3,60.8
		C-676.7,1149.2-697.4,1150.2-718.1,1151.3z M-850.1,1074c0-0.5,0-0.9,0-1.4c23.1,0,46.2,0.7,69.2-0.1c49.8-1.8,99.9-1.2,149.2-7.4
		c67.3-8.4,112.8-47.2,129.4-114.2c6.6-26.5,8.9-54.6,9.4-82c1.5-88.9,1.8-177.8,1.3-266.6c-0.2-35-1.9-70.1-6.3-104.8
		c-8.9-70.7-52.7-118.5-122.4-132.4c-29.9-6-61-7.7-91.6-8.2c-76.6-1.3-153.2-1-229.9-0.8c-43.8,0.1-87.9-0.9-131.2,7.4
		c-65.5,12.4-109.5,50-124.3,115.8c-6.7,29.4-8.5,60.3-9.2,90.6c-1.6,70.9-2.1,141.9-1.3,212.8c0.5,48.9,1.9,98,6.6,146.7
		c4.7,48.1,27.4,87.8,69.6,113.9c28.3,17.5,60,24.6,92.8,25.8C-976,1071.4-913,1072.4-850.1,1074z"/>
	<path d="M-1074.6,713.3c0.5-124.4,101.8-225.1,225.5-224.3c124.7,0.8,225.1,102,224.1,225.6c-1.1,124.5-101.5,224.4-225,224
		C-974.3,938.2-1075.2,837-1074.6,713.3z M-850.4,859.4c80.7,0.3,145.8-64.1,146.3-144.8c0.5-80.7-63.9-146-144.6-146.6
		c-81-0.6-146.5,64.2-146.7,145.2C-995.7,793.9-931.1,859.1-850.4,859.4z"/>
	<path d="M-615.5,427.7c29.4,0.3,52.2,23.8,51.7,53.3c-0.5,28.9-23.8,51.7-52.8,51.4c-29-0.2-52.2-24.2-51.9-53.4
		C-668.1,450.3-644.5,427.4-615.5,427.7z"/>
</g>
</svg>
