<?xml version="1.0" encoding="utf-8"?>
<!-- Generator: Adobe Illustrator 27.5.0, SVG Export Plug-In . SVG Version: 6.00 Build 0)  -->
<svg version="1.1" id="Layer_1" xmlns="http://www.w3.org/2000/svg" xmlns:xlink="http://www.w3.org/1999/xlink" x="0px" y="0px"
	 viewBox="0 0 1000 1000" style="enable-background:new 0 0 1000 1000;" xml:space="preserve">
<g>
	<path d="M632.3,937.9c-87.7,0-175.5,0-263.2,0c-5.4-0.5-10.7-1.2-16.1-1.4c-35-0.9-70-2.3-104.3-10.7
		c-72-17.7-125.6-58.6-157.4-126.2c-19.8-42-25.8-87.2-26.3-133c-1-94.3-1.8-188.5-1.4-282.8c0.2-42.6,0.7-85.5,9.7-127.5
		c16.3-75.3,57.2-131.8,127.5-165.2c41.4-19.7,86-25.5,131.2-26.6c120.7-2.9,241.4-4.3,362.1,1.6c35.2,1.7,69.5,8.5,101.8,23.1
		C876,125.6,918.1,190,931.3,275.1c2.3,15.1,3.5,30.4,5.2,45.6c0,117.4,0,234.8,0,352.2c-0.5,3.1-1.1,6.1-1.4,9.2
		c-1.8,17.2-2.7,34.6-5.6,51.7c-9.3,54.9-32.8,102.6-74.9,140c-45.7,40.5-100.7,56.7-160.3,60.8
		C673.6,935.8,652.9,936.7,632.3,937.9z M500.2,860.5c0-0.5,0-0.9,0-1.4c23.1,0,46.2,0.7,69.2-0.1c49.8-1.8,99.9-1.2,149.2-7.4
		c67.3-8.4,112.8-47.2,129.4-114.2c6.6-26.5,8.9-54.6,9.4-82c1.5-88.9,1.8-177.8,1.3-266.6c-0.2-35-1.9-70.1-6.3-104.8
		c-8.9-70.7-52.7-118.5-122.4-132.4c-29.9-6-61-7.7-91.6-8.2c-76.6-1.3-153.2-1-229.9-0.8c-43.8,0.1-87.9-0.9-131.2,7.4
		c-65.5,12.4-109.5,50-124.3,115.8c-6.7,29.4-8.5,60.3-9.2,90.6c-1.6,70.9-2.1,141.9-1.3,212.8c0.5,48.9,1.9,98,6.6,146.7
		c4.7,48.1,27.4,87.8,69.6,113.9c28.3,17.5,60,24.6,92.8,25.8C374.4,857.9,437.3,859,500.2,860.5z"/>
	<path d="M275.7,499.9c0.5-124.4,101.8-225.1,225.5-224.3c124.7,0.8,225.1,102,224.1,225.6c-1.1,124.5-101.5,224.4-225,224
		C376,724.7,275.2,623.6,275.7,499.9z M499.9,646c80.7,0.3,145.8-64.1,146.3-144.8c0.5-80.7-63.9-146-144.6-146.6
		c-81-0.6-146.5,64.2-146.7,145.2C354.6,580.5,419.3,645.6,499.9,646z"/>
	<path d="M734.8,214.3c29.4,0.3,52.2,23.8,51.7,53.3c-0.5,28.9-23.8,51.7-52.8,51.4c-29-0.2-52.2-24.2-51.9-53.4
		C682.2,236.8,705.8,214,734.8,214.3z"/>
</g>
</svg>
