<?xml version="1.0" encoding="UTF-8"?>
<svg id="Layer_1" data-name="Layer 1" xmlns="http://www.w3.org/2000/svg" viewBox="0 0 1000 1000">
  <path d="m717.61,393.99v15.22h43.92v279.34l-165.73-294.56h-110.68v15.22h43.92v187.68c-15.22-3.06-22.01-24.24-26.33-72.22-2.34-24.6-5.85-55.05-16.39-72.62-22.26-37.48-52.71-40.41-79.65-50.36,47.44-10.54,103.07-28.7,103.07-98.39,0-83.74-77.89-98.97-125.32-98.97h-161.63v15.23h43.92v375.38h-43.92v15.23h144.65v-15.23h-42.75v-183.88h45.67c14.64,0,32.21,2.34,43.34,14.05,19.91,21.08,22.25,57.98,24.01,88.43,4.69,87.26,32.79,104.82,75.54,104.82,5.52,0,10.78-.47,15.79-1.33v167.56h-43.92v15.23h107.17v-15.23h-43.92v-173.22c7.14-3.01,13.59-6.84,19.35-11.16l-6.44-11.71c-4.18,2.89-8,5.25-12.91,6.79v-169.68l212.58,378.89h19.91v-395.29h44.51v-15.22h-107.76Zm-392.92.08v-174.51h31.62c56.22,0,88.43,14.05,88.43,86.67,0,80.82-31.63,87.84-120.05,87.84Z"/>
</svg>